<?xml version="1.0" encoding="UTF-8"?>
<!DOCTYPE svg PUBLIC "-//W3C//DTD SVG 1.1//EN" "http://www.w3.org/Graphics/SVG/1.1/DTD/svg11.dtd">
<svg xmlns="http://www.w3.org/2000/svg" version="1.1" width="2379px" height="2997px" style="shape-rendering:geometricPrecision; text-rendering:geometricPrecision; image-rendering:optimizeQuality; fill-rule:evenodd; clip-rule:evenodd" xmlns:xlink="http://www.w3.org/1999/xlink">
<g><path style="opacity:0.998" fill="#fefffe" d="M 2156.5,32.5 C 2211.17,32.5 2265.83,32.5 2320.5,32.5C 2321.4,179.497 2322.06,326.497 2322.5,473.5C 1569.17,476.124 815.833,478.79 62.5,481.5C 62.324,334.5 61.9907,187.5 61.5,40.5C 760,38.1637 1458.33,35.4971 2156.5,32.5 Z"/></g>
<g><path style="opacity:0.997" fill="#fefffe" d="M 439.5,675.5 C 451.833,675.5 464.167,675.5 476.5,675.5C 476.833,1329.5 476.5,1983.5 475.5,2637.5C 338.919,2560.96 202.419,2484.29 66,2407.5C 69.6379,1831.83 73.8045,1256.16 78.5,680.5C 199.005,679.417 319.338,677.75 439.5,675.5 Z"/></g>
<g><path style="opacity:0.997" fill="#fefffe" d="M 2318.5,676.5 C 2319.33,686.992 2319.83,697.659 2320,708.5C 2326.06,1291.5 2331.72,1874.5 2337,2457.5C 2194.81,2527.07 2052.64,2596.73 1910.5,2666.5C 1903.53,2141.84 1897.7,1617.18 1893,1092.5C 2035.03,953.966 2176.87,815.299 2318.5,676.5 Z"/></g>
<g><path style="opacity:0.997" fill="#fefffe" d="M 663.5,684.5 C 1098.17,684.167 1532.83,684.5 1967.5,685.5C 1847.71,811.455 1727.38,936.955 1606.5,1062C 1295.85,1065.69 985.186,1068.52 674.5,1070.5C 670.453,941.855 666.786,813.188 663.5,684.5 Z"/></g>
<g><path style="opacity:0.997" fill="#fefffe" d="M 685.5,1260.5 C 814.502,1261.3 943.502,1262.3 1072.5,1263.5C 1078.07,1831.52 1083.73,2399.52 1089.5,2967.5C 1089.17,2968.17 1088.83,2968.83 1088.5,2969.5C 952.085,2888.21 815.918,2806.54 680,2724.5C 681.481,2236.5 683.315,1748.5 685.5,1260.5 Z"/></g>
<g><path style="opacity:0.996" fill="#fefffe" d="M 1266.5,1418.5 C 1423.74,1562.9 1580.58,1707.9 1737,1853.5C 1741.56,2058.52 1745.4,2263.52 1748.5,2468.5C 1591.82,2322.65 1434.98,2176.98 1278,2031.5C 1273.94,1827.17 1270.11,1622.84 1266.5,1418.5 Z"/></g>
</svg>
